<svg width="356" height="538" viewBox="0 0 356 538" fill="none" xmlns="http://www.w3.org/2000/svg">
<path d="M132.628 103.988C137.532 132.017 144.177 159.713 152.525 186.916C160.802 214.34 170.366 241.338 180.303 268.207C190.24 295.075 200.603 321.919 210.465 348.793C220.326 375.666 229.614 402.649 237.542 430.109C245.667 457.618 251.901 485.65 256.201 514.01C256.712 517.518 257.179 521.044 257.632 524.602C257.812 526.117 260.092 525.983 259.912 524.468C256.262 496.305 250.618 468.437 243.022 441.073C235.515 413.512 226.478 386.408 216.876 359.534C207.274 332.661 196.941 305.8 186.837 278.941C176.732 252.082 167.008 225.201 158.384 197.843C149.529 170.454 142.318 142.561 136.788 114.313C136.126 110.829 135.508 107.327 134.901 103.748C134.665 102.313 132.38 102.371 132.622 103.882L132.628 103.988Z" fill="#1A0933"/>
<path d="M176.921 256.845C165.07 238.934 153.054 220.82 137.362 206.582C134.25 203.715 130.934 201.012 126.894 199.999C122.853 198.986 118.207 200.113 115.977 203.691C113.747 207.269 114.613 212.404 116.989 215.97C119.364 219.537 122.953 221.949 126.444 224.26L177.737 258.276L176.921 256.845Z" fill="#1A0933"/>
<path d="M233.452 253.354C230.948 252.8 225.155 254.909 223.264 256.729C213.912 265.774 209.38 275.847 205.935 288.861C202.491 301.875 203.431 317.361 204.102 330.85L206.411 338.218C209.094 320.359 215.546 303.276 225.336 288.102C230.413 280.284 236.626 272.598 237.779 263.151C238.295 259.216 237.113 254.145 233.452 253.354Z" fill="#1A0933"/>
<path d="M268.353 348.928C265.85 348.374 260.04 350.47 258.165 352.303C248.813 361.348 244.281 371.421 240.837 384.435C237.392 397.449 238.318 412.936 239.004 426.424L241.298 433.793C243.987 415.936 250.438 398.854 260.223 383.677C265.299 375.844 271.512 368.158 272.681 358.725C273.181 354.776 272.014 349.72 268.353 348.928Z" fill="#1A0933"/>
<path d="M187.645 419.575C189.233 417.789 194.595 416.116 196.902 416.453C208.372 418.021 216.797 423.047 225.824 430.798C234.851 438.549 241.875 450.627 248.1 461.044L250.023 467.81C239.204 456.023 225.864 446.829 210.999 440.912C203.318 437.901 194.915 435.574 189.295 429.224C186.9 426.619 185.313 422.198 187.645 419.575Z" fill="#1A0933"/>
<path d="M176.523 141.626C174.409 141.476 169.856 143.925 168.493 145.652C161.771 154.283 159.123 163.193 157.672 174.321C156.221 185.448 158.677 198.161 160.7 209.222L163.39 215.027C163.681 199.906 167.156 185.015 173.587 171.326C176.922 164.237 181.157 157.155 181.146 149.179C181.15 145.869 179.631 141.825 176.523 141.626Z" fill="#1A0933"/>
<path d="M83.3941 45.3262C78.948 42.8575 73.4442 40.817 69.7668 43.6412C66.337 46.2678 66.3064 52.233 68.5941 56.6435C70.8818 61.054 74.8791 64.1897 78.8361 66.9007C92.3263 76.1128 115.965 94.2606 130.441 91.183L129.415 89.2911C119.968 78.5449 94.5258 51.5198 83.3941 45.3262Z" fill="#ED9E8F"/>
<g opacity="0.3">
<path d="M83.3941 45.3262C78.948 42.8575 73.4442 40.817 69.7668 43.6412C66.337 46.2678 66.3064 52.233 68.5941 56.6435C70.8818 61.054 74.8791 64.1897 78.8361 66.9007C92.3263 76.1128 115.965 94.2606 130.441 91.183L129.415 89.2911C119.968 78.5449 94.5258 51.5198 83.3941 45.3262Z" fill="black"/>
</g>
<path d="M144.611 24.5087C144.041 19.2193 142.544 13.2219 138.28 11.5051C134.312 9.90813 129.622 13.1579 127.474 17.6004C125.325 22.0429 125.085 27.3036 125.196 32.2996C125.555 49.3146 124.626 80.2081 135.15 91.3638L136.056 89.404C139.154 75.1599 146.016 37.7713 144.611 24.5087Z" fill="#ED9E8F"/>
<g opacity="0.3">
<path d="M144.611 24.5087C144.041 19.2193 142.544 13.2219 138.28 11.5051C134.312 9.90813 129.622 13.1579 127.474 17.6004C125.325 22.0429 125.085 27.3036 125.196 32.2996C125.555 49.3146 124.626 80.2081 135.15 91.3638L136.056 89.404C139.154 75.1599 146.016 37.7713 144.611 24.5087Z" fill="black"/>
</g>
<path d="M157.875 25.2084C153.476 23.8045 149.097 27.4021 146.351 31.2849C141.082 38.6866 138.374 47.8748 137.193 57.1105C136.539 62.5938 134.412 72.0681 132.867 80.8066C129.621 64.5103 123.844 46.9292 118.724 32.4666C115.452 22.9893 108.703 18.1852 104.869 17.0532C103.606 16.7468 102.289 16.7348 101.02 17.0183C99.7518 17.3018 98.5654 17.8731 97.5528 18.6881C95.4761 20.3947 93.8504 22.5852 92.8184 25.0671C87.711 36.257 93.5531 50.5399 100.141 60.9051C105.804 69.7995 117.422 82.9651 126.613 91.1793C114.334 81.6472 100.421 74.4334 85.5549 69.8916C80.2451 68.2973 73.7945 67.5326 69.9811 71.6764C66.4288 75.5914 67.117 82.3685 70.2255 86.7307C73.3339 91.093 78.2539 93.5796 82.9467 95.5763C99.2828 102.349 118.035 105.334 134.009 97.8976C142.366 91.3972 148.761 81.8855 154.49 72.7028C158.402 66.8605 161.517 60.5224 163.753 53.8563C166.009 47.0308 166.109 39.6765 164.04 32.7921C163.037 29.4805 161.015 26.2135 157.875 25.2084Z" fill="#ED9E8F"/>
<g opacity="0.6">
<path d="M157.875 25.2084C153.476 23.8045 149.097 27.4021 146.351 31.2849C141.082 38.6866 138.374 47.8748 137.193 57.1105C136.539 62.5938 134.412 72.0681 132.867 80.8066C129.621 64.5103 123.844 46.9292 118.724 32.4666C115.452 22.9893 108.703 18.1852 104.869 17.0532C103.606 16.7468 102.289 16.7348 101.02 17.0183C99.7518 17.3018 98.5654 17.8731 97.5528 18.6881C95.4761 20.3947 93.8504 22.5852 92.8184 25.0671C87.711 36.257 93.5531 50.5399 100.141 60.9051C105.804 69.7995 117.422 82.9651 126.613 91.1793C114.334 81.6472 100.421 74.4334 85.5549 69.8916C80.2451 68.2973 73.7945 67.5326 69.9811 71.6764C66.4288 75.5914 67.117 82.3685 70.2255 86.7307C73.3339 91.093 78.2539 93.5796 82.9467 95.5763C99.2828 102.349 118.035 105.334 134.009 97.8976C142.366 91.3972 148.761 81.8855 154.49 72.7028C158.402 66.8605 161.517 60.5224 163.753 53.8563C166.009 47.0308 166.109 39.6765 164.04 32.7921C163.037 29.4805 161.015 26.2135 157.875 25.2084Z" fill="#FFDBC3"/>
</g>
<path d="M145.994 68.0167C143.972 67.3576 141.951 69.0322 140.668 70.8158C138.308 74.3857 136.867 78.4837 136.473 82.7451C136.18 85.2789 135.201 89.6526 134.478 93.6911C132.799 86.0871 130.596 78.6082 127.885 71.3079C127.411 69.7229 126.59 68.2635 125.481 67.0359C124.372 65.8083 123.003 64.8434 121.474 64.2114C120.891 64.0718 120.284 64.0679 119.7 64.2001C119.115 64.3323 118.569 64.597 118.103 64.9739C117.144 65.7593 116.392 66.7668 115.911 67.909C113.561 73.0802 116.252 79.6785 119.295 84.4869C122.82 89.5988 126.924 94.2861 131.525 98.4554C125.853 94.0529 119.423 90.7247 112.554 88.6351C110.116 87.8938 107.12 87.5209 105.358 89.4546C103.595 91.3884 104.123 94.3925 105.477 96.4176C107.032 98.2982 109.079 99.7093 111.39 100.493C118.925 103.619 127.593 105.001 134.971 101.562C138.766 98.2559 141.966 94.3226 144.43 89.9337C146.238 87.2267 147.676 84.2903 148.706 81.2025C149.746 78.0463 149.791 74.6469 148.835 71.4643C148.649 70.7139 148.297 70.0148 147.805 69.4182C147.314 68.8216 146.695 68.3427 145.994 68.0167Z" fill="#1A0933"/>
<path d="M61.5091 321.936C56.5881 322.805 50.9957 324.705 49.742 329.323C48.4705 333.638 51.8033 338.445 56.1654 340.522C60.5275 342.599 65.435 342.539 70.0958 342.174C86.0209 340.917 115.04 340.31 124.794 328.526L122.899 327.677C109.342 325.118 73.8571 319.761 61.5091 321.936Z" fill="#ED9E8F"/>
<g opacity="0.3">
<path d="M61.5091 321.936C56.5881 322.805 50.9957 324.705 49.742 329.323C48.4705 333.638 51.8033 338.445 56.1654 340.522C60.5275 342.599 65.435 342.539 70.0958 342.174C86.0209 340.917 115.04 340.31 124.794 328.526L122.899 327.677C109.342 325.118 73.8571 319.761 61.5091 321.936Z" fill="black"/>
</g>
<path d="M98.2987 265.935C94.8683 262.064 90.2185 258.205 85.9367 259.57C81.8624 260.831 79.9963 266.447 80.7909 271.402C81.5855 276.358 84.3882 280.708 87.3197 284.654C97.2593 298.07 114.004 323.472 128.637 325.662L128.237 323.52C122.643 310.091 106.925 275.692 98.2987 265.935Z" fill="#ED9E8F"/>
<g opacity="0.3">
<path d="M98.2987 265.935C94.8683 262.064 90.2185 258.205 85.9367 259.57C81.8624 260.831 79.9963 266.447 80.7909 271.402C81.5855 276.358 84.3882 280.708 87.3197 284.654C97.2593 298.07 114.004 323.472 128.637 325.662L128.237 323.52C122.643 310.091 106.925 275.692 98.2987 265.935Z" fill="black"/>
</g>
<path d="M109.239 257.971C104.946 259.673 103.573 265.366 103.509 270.25C103.778 279.576 106.324 288.694 110.927 296.81C113.513 301.63 117.182 310.595 120.916 318.597C109.121 307.607 94.5888 297.267 82.319 288.837C74.3728 283.386 66.2412 283.864 62.6265 285.419C61.429 286.011 60.3743 286.856 59.5349 287.896C58.6955 288.935 58.0914 290.144 57.7643 291.439C57.067 294.101 57.0114 296.891 57.6021 299.578C59.8475 311.83 72.5939 319.546 83.6935 323.637C93.2035 327.15 109.888 330.241 121.824 330.928C106.498 331.209 91.3606 334.36 77.1948 340.216C72.0878 342.331 66.4979 345.832 65.8486 351.651C65.252 357.07 69.6202 362.105 74.5715 363.568C79.5227 365.031 84.7808 363.929 89.7572 362.447C106.543 357.403 123.118 347.75 131.591 331.543C134.537 320.953 134.245 309.226 133.595 298.177C133.392 291.01 132.261 283.899 130.232 277.022C128.019 270.258 124.152 263.882 118.551 259.94C115.743 258.092 112.295 256.77 109.239 257.971Z" fill="#ED9E8F"/>
<g opacity="0.6">
<path d="M109.239 257.971C104.946 259.673 103.573 265.366 103.509 270.25C103.778 279.576 106.324 288.694 110.927 296.81C113.513 301.63 117.182 310.595 120.916 318.597C109.121 307.607 94.5888 297.267 82.319 288.837C74.3728 283.386 66.2412 283.864 62.6265 285.419C61.429 286.011 60.3743 286.856 59.5349 287.896C58.6955 288.935 58.0914 290.144 57.7643 291.439C57.067 294.101 57.0114 296.891 57.6021 299.578C59.8475 311.83 72.5939 319.546 83.6935 323.637C93.2035 327.15 109.888 330.241 121.824 330.928C106.498 331.209 91.3606 334.36 77.1948 340.216C72.0878 342.331 66.4979 345.832 65.8486 351.651C65.252 357.07 69.6202 362.105 74.5715 363.568C79.5227 365.031 84.7808 363.929 89.7572 362.447C106.543 357.403 123.118 347.75 131.591 331.543C134.537 320.953 134.245 309.226 133.595 298.177C133.392 291.01 132.261 283.899 130.232 277.022C128.019 270.258 124.152 263.882 118.551 259.94C115.743 258.092 112.295 256.77 109.239 257.971Z" fill="#FFDBC3"/>
</g>
<path d="M123.938 299.949C121.971 300.736 121.302 303.368 121.298 305.626C121.424 309.926 122.603 314.13 124.732 317.869C125.916 320.102 127.623 324.242 129.335 327.939C123.744 322.929 117.791 318.339 111.523 314.207C110.236 313.247 108.74 312.605 107.157 312.335C105.574 312.065 103.95 312.174 102.417 312.653C101.865 312.925 101.378 313.314 100.99 313.792C100.602 314.27 100.323 314.827 100.171 315.424C99.8491 316.657 99.8257 317.95 100.102 319.195C101.152 324.852 107.019 328.412 112.149 330.307C117.858 332.152 123.775 333.28 129.763 333.664C122.686 333.783 115.694 335.228 109.15 337.926C106.782 338.904 104.208 340.519 103.908 343.206C103.871 344.442 104.247 345.656 104.977 346.655C105.707 347.653 106.749 348.38 107.939 348.719C110.267 349.234 112.696 349.054 114.924 348.202C122.687 345.869 130.341 341.408 134.247 333.919C135.387 328.865 135.699 323.66 135.171 318.506C135.074 315.204 134.554 311.929 133.622 308.76C132.704 305.628 130.811 302.87 128.218 300.887C127.634 300.395 126.94 300.053 126.194 299.89C125.448 299.726 124.674 299.747 123.938 299.949Z" fill="#1A0933"/>
<path d="M130.108 333.826C158.074 342.538 185.431 354.154 208.633 372.373C213.637 376.303 218.413 380.491 223.093 384.853C223.224 384.967 223.38 385.05 223.548 385.095C223.716 385.14 223.892 385.147 224.063 385.115C224.234 385.083 224.396 385.013 224.536 384.91C224.676 384.807 224.791 384.673 224.873 384.519L246.675 346.512L281.122 286.454L288.966 272.785C289.699 271.507 287.656 270.483 286.938 271.761L265.135 309.753L230.673 369.811L222.829 383.48L224.609 383.147C216.059 374.997 206.796 367.63 196.93 361.134C184.95 353.436 172.258 346.909 159.028 341.644C149.654 337.863 140.31 334.569 130.648 331.583C129.234 331.148 128.771 333.386 130.169 333.823L130.108 333.826Z" fill="#1A0933"/>
<path d="M291.567 213.502C290.853 209.411 289.363 204.816 285.944 203.736C282.525 202.656 279.28 205.561 277.844 209.153C276.615 212.897 276.28 216.876 276.864 220.772C278.055 234.017 279.063 258.177 287.803 266.235L288.398 264.674C290.044 253.246 293.372 223.721 291.567 213.502Z" fill="#ED9E8F"/>
<g opacity="0.3">
<path d="M291.567 213.502C290.853 209.411 289.363 204.816 285.944 203.736C282.525 202.656 279.28 205.561 277.844 209.153C276.615 212.897 276.28 216.876 276.864 220.772C278.055 234.017 279.063 258.177 287.803 266.235L288.398 264.674C290.044 253.246 293.372 223.721 291.567 213.502Z" fill="black"/>
</g>
<path d="M333.247 243.812C336.052 240.933 338.8 237.096 337.717 233.468C336.726 230.095 332.564 228.57 328.944 229.256C325.324 229.942 322.169 232.308 319.323 234.748C309.64 243.08 291.281 257.154 289.925 269.374L291.43 269.041C301.309 264.297 326.294 251.115 333.247 243.812Z" fill="#ED9E8F"/>
<g opacity="0.3">
<path d="M333.247 243.812C336.052 240.933 338.8 237.096 337.717 233.468C336.726 230.095 332.564 228.57 328.944 229.256C325.324 229.942 322.169 232.308 319.323 234.748C309.64 243.08 291.281 257.154 289.925 269.374L291.43 269.041C301.309 264.297 326.294 251.115 333.247 243.812Z" fill="black"/>
</g>
<path d="M339.331 252.865C338.007 249.298 333.806 248.141 330.224 248.169C323.313 248.462 316.616 250.644 310.859 254.478C307.358 256.666 300.829 259.765 295.02 262.913C302.837 252.667 309.91 241.874 316.182 230.616C320.044 223.922 319.557 217.195 318.359 214.199C317.948 213.243 317.333 212.387 316.558 211.692C315.782 210.998 314.864 210.481 313.868 210.178C311.916 209.621 309.851 209.59 307.884 210.087C298.924 212.047 293.479 222.678 290.668 231.948C287.924 242.337 286.341 252.998 285.948 263.736C285.501 251.033 282.944 238.494 278.383 226.631C276.73 222.381 274.078 217.733 269.793 217.237C265.8 216.755 262.218 220.428 261.195 224.56C260.172 228.692 261.1 233.061 262.271 237.156C266.249 251.121 273.614 264.857 285.662 271.836C293.428 274.231 302.088 273.921 310.152 273.325C315.436 273.121 320.661 272.141 325.659 270.415C330.766 268.605 335.113 265.126 337.997 260.539C338.762 259.433 339.277 258.173 339.507 256.848C339.737 255.524 339.677 254.164 339.331 252.865Z" fill="#ED9E8F"/>
<path d="M256.624 502.79C259.151 478.834 267.13 455.258 278.185 433.943C281.2 428.118 284.533 422.464 288.17 417.006C288.983 415.784 286.94 414.76 286.127 415.967C272.802 436.24 263.215 458.736 257.82 482.389C256.269 488.987 255.134 495.676 254.421 502.416C254.262 503.859 256.503 504.353 256.646 502.896L256.624 502.79Z" fill="#1A0933"/>
<path d="M297.31 388.268C297.454 386.048 297.256 383.452 295.608 382.405C293.96 381.358 291.917 382.408 290.718 384.065C289.612 385.838 288.941 387.848 288.76 389.93C287.648 396.965 285.174 409.617 288.711 415.037L289.217 414.306C291.527 408.725 296.966 393.84 297.31 388.268Z" fill="#ED9E8F"/>
<g opacity="0.3">
<path d="M297.31 388.268C297.454 386.048 297.256 383.452 295.608 382.405C293.96 381.358 291.917 382.408 290.718 384.065C289.612 385.838 288.941 387.848 288.76 389.93C287.648 396.965 285.174 409.617 288.711 415.037L289.217 414.306C291.527 408.725 296.966 393.84 297.31 388.268Z" fill="black"/>
</g>
<path d="M315.206 409.911C317.018 408.813 318.938 407.221 318.819 405.199C318.655 404.245 318.162 403.379 317.425 402.751C316.689 402.123 315.756 401.772 314.788 401.76C312.794 401.75 310.832 402.26 309.095 403.239C303.029 406.173 291.714 410.865 289.482 417.005L290.339 417.046C296.087 415.976 310.656 412.664 315.206 409.911Z" fill="#ED9E8F"/>
<g opacity="0.3">
<path d="M315.206 409.911C317.018 408.813 318.938 407.221 318.819 405.199C318.655 404.245 318.162 403.379 317.425 402.751C316.689 402.123 315.756 401.772 314.788 401.76C312.794 401.75 310.832 402.26 309.095 403.239C303.029 406.173 291.714 410.865 289.482 417.005L290.339 417.046C296.087 415.976 310.656 412.664 315.206 409.911Z" fill="black"/>
</g>
<path d="M317.21 415.452C316.968 413.422 314.931 412.23 313.056 411.73C309.458 410.902 305.701 411.081 302.197 412.247C300.114 412.888 296.326 413.568 292.908 414.318C298.256 410.122 303.288 405.539 307.964 400.606C309.046 399.545 309.889 398.265 310.437 396.852C310.986 395.439 311.226 393.925 311.143 392.412C311.047 391.853 310.834 391.321 310.517 390.85C310.2 390.38 309.787 389.982 309.305 389.683C308.367 389.12 307.296 388.815 306.202 388.798C301.291 388.538 297.131 393.266 294.522 397.66C291.787 402.679 289.633 407.995 288.102 413.502C289.457 406.822 289.698 399.964 288.815 393.206C288.49 390.785 287.685 387.995 285.515 387.132C283.344 386.268 281.186 387.706 280.129 389.69C279.215 391.796 278.867 394.103 279.119 396.384C279.44 404.174 281.581 412.33 286.928 417.659C290.818 419.852 295.075 421.317 299.49 421.984C302.235 422.626 305.06 422.86 307.874 422.681C310.733 422.479 313.436 421.303 315.532 419.348C316.086 418.865 316.524 418.265 316.814 417.591C317.105 416.916 317.24 416.185 317.21 415.452Z" fill="#ED9E8F"/>
<g opacity="0.6">
<path d="M317.21 415.452C316.968 413.422 314.931 412.23 313.056 411.73C309.458 410.902 305.701 411.081 302.197 412.247C300.114 412.888 296.326 413.568 292.908 414.318C298.256 410.122 303.288 405.539 307.964 400.606C309.046 399.545 309.889 398.265 310.437 396.852C310.986 395.439 311.226 393.925 311.143 392.412C311.047 391.853 310.834 391.321 310.517 390.85C310.2 390.38 309.787 389.982 309.305 389.683C308.367 389.12 307.296 388.815 306.202 388.798C301.291 388.538 297.131 393.266 294.522 397.66C291.787 402.679 289.633 407.995 288.102 413.502C289.457 406.822 289.698 399.964 288.815 393.206C288.49 390.785 287.685 387.995 285.515 387.132C283.344 386.268 281.186 387.706 280.129 389.69C279.215 391.796 278.867 394.103 279.119 396.384C279.44 404.174 281.581 412.33 286.928 417.659C290.818 419.852 295.075 421.317 299.49 421.984C302.235 422.626 305.06 422.86 307.874 422.681C310.733 422.479 313.436 421.303 315.532 419.348C316.086 418.865 316.524 418.265 316.814 417.591C317.105 416.916 317.24 416.185 317.21 415.452Z" fill="#FFDBC3"/>
</g>
<path d="M299.75 417.576C299.694 416.634 298.703 416.112 297.834 415.858C296.172 415.489 294.44 415.59 292.833 416.152C291.859 416.438 290.108 416.755 288.544 417.136C291.011 415.195 293.334 413.075 295.492 410.795C295.99 410.305 296.379 409.715 296.632 409.064C296.886 408.413 296.999 407.716 296.963 407.018C296.917 406.76 296.818 406.514 296.671 406.297C296.524 406.079 296.334 405.895 296.111 405.756C295.679 405.496 295.187 405.352 294.683 405.337C292.42 405.226 290.489 407.414 289.281 409.437C288.019 411.75 287.022 414.198 286.309 416.734C286.937 413.651 287.05 410.485 286.643 407.365C286.485 406.231 286.12 404.956 285.12 404.557C284.632 404.42 284.111 404.465 283.653 404.682C283.194 404.9 282.83 405.276 282.628 405.74C282.211 406.709 282.052 407.77 282.168 408.818C282.118 412.433 283.411 415.939 285.797 418.655C287.591 419.656 289.553 420.321 291.586 420.618C292.857 420.907 294.162 421.015 295.463 420.939C296.784 420.838 298.032 420.292 299.002 419.389C299.259 419.166 299.46 418.885 299.59 418.571C299.72 418.256 299.774 417.915 299.75 417.576Z" fill="#1A0933"/>
<path d="M67.59 423H7.15002C3.77002 423 1 426.4 1 430.56V470.9C1 475.05 3.77002 478.45 7.15002 478.45H21.63L12.16 499.32L37.41 478.45H67.59C70.97 478.45 73.73 475.05 73.73 470.9V430.57C73.73 426.41 70.97 423 67.59 423Z" fill="#263238" stroke="#263238" stroke-linecap="round" stroke-linejoin="round"/>
<path d="M26.89 463.52L14.18 454.52V449.76L26.89 440.69V445.5L17.78 452.12L26.89 458.74V463.52Z" fill="#FFAC92"/>
<path d="M30.76 465.12L40.45 429.12H44.58L34.85 465.12H30.76Z" fill="#FFAC92"/>
<path d="M48.45 463.52V458.76L57.61 452.1L48.45 445.52V440.71L61.21 449.71V454.47L48.45 463.52Z" fill="#FFAC92"/>
</svg>
