<svg width="414" height="373" viewBox="0 0 414 373" fill="none" xmlns="http://www.w3.org/2000/svg">
<path d="M299.863 240.498C316.495 231.706 336.176 227.846 354.916 228.257C359.997 228.346 365.061 228.86 370.056 229.792C371.072 229.987 371.516 228.419 370.488 228.224C351.705 224.634 331.439 226.916 313.413 232.993C308.466 234.641 303.66 236.684 299.041 239.103C298.122 239.59 298.933 240.995 299.863 240.498Z" fill="#1A0933"/>
<path d="M328.217 230.182C335.376 226.148 342.881 222.699 350.807 221.152C358.734 219.606 367.125 220.071 374.479 223.672C376.436 224.623 378.577 226.246 378.523 228.592C378.465 229.451 378.152 230.273 377.624 230.953C377.097 231.633 376.378 232.14 375.56 232.41C373.986 232.848 372.331 232.914 370.726 232.604C357.533 230.971 344.319 227.327 331.147 229.176" fill="#1A0933"/>
<path d="M305.4 218.784C311.676 210.583 319.278 203.489 327.892 197.794C336.65 191.798 346.181 187.017 356.225 183.584C361.354 181.818 366.636 180.529 372.002 179.735C373.084 179.583 372.586 178.026 371.57 178.167C361.433 179.757 351.602 182.905 342.426 187.499C332.725 192.145 323.717 198.117 315.662 205.245C311.338 209.07 307.418 213.328 303.961 217.951C303.345 218.795 304.751 219.595 305.367 218.773L305.4 218.784Z" fill="#1A0933"/>
<path d="M329.493 198.335C333.71 184.996 341.948 173.288 353.078 164.812C354.322 163.848 355.676 163.035 357.112 162.39C360.14 161.114 363.167 164.228 362.097 167.569C361.599 169.107 360.777 170.52 359.685 171.711C357.36 174.274 354.278 175.756 351.315 177.432C342.718 182.404 335.331 189.222 329.688 197.394" fill="#1A0933"/>
<path d="M327.665 198.811L365.384 211.301C366.844 211.922 368.431 212.181 370.013 212.058C370.822 211.944 371.573 211.574 372.157 211.002C372.741 210.429 373.126 209.686 373.257 208.879C373.43 207.03 372.035 205.472 370.618 204.445C367.507 202.365 364.016 200.921 360.345 200.195C349.865 197.64 339.006 197.021 328.303 198.368" fill="#1A0933"/>
<path d="M392.149 175.117C391.972 174.329 391.609 173.594 391.09 172.975C390.57 172.356 389.91 171.87 389.164 171.56C387.716 171.012 386.168 170.776 384.622 170.867C369.093 170.997 354.538 178.978 341.561 188.289L338.198 191.749C353.002 183.844 371.105 188.354 386.58 182.146C388.081 181.63 389.453 180.797 390.602 179.702C391.199 179.111 391.649 178.388 391.917 177.592C392.185 176.797 392.265 175.949 392.149 175.117Z" fill="#1A0933"/>
<path d="M309.011 205.245C306.93 195.628 303.756 186.282 299.549 177.388C295.414 168.335 290.439 159.689 284.691 151.564C281.958 147.694 278.959 144.019 275.715 140.567C274.991 139.81 273.844 140.956 274.569 141.713C280.585 148.22 285.839 155.393 290.228 163.092C295.374 171.745 299.69 180.866 303.118 190.332C304.92 195.339 306.365 200.467 307.443 205.677C307.649 206.704 309.217 206.272 309.011 205.245Z" fill="#1A0933"/>
<path d="M258.651 371.996C261.095 365.929 263.279 359.754 265.41 353.612C268.265 345.285 270.99 336.915 273.65 328.524C276.808 318.539 279.886 308.532 282.885 298.504C286.208 287.431 289.453 276.339 292.617 265.23C295.941 253.645 299.185 242.041 302.35 230.42C305.515 218.799 308.6 207.264 311.607 195.815C314.44 184.908 317.197 173.978 319.879 163.028C322.237 153.295 324.529 143.562 326.67 133.83C328.412 125.882 330.066 117.912 331.483 109.899C332.478 104.243 333.418 98.5549 333.851 92.8344C333.927 91.8611 333.981 90.8771 334.002 89.9038C334.002 89.6887 333.917 89.4824 333.765 89.3303C333.613 89.1782 333.406 89.0928 333.191 89.0928C332.976 89.0928 332.77 89.1782 332.618 89.3303C332.466 89.4824 332.38 89.6887 332.38 89.9038C332.159 94.9431 331.596 99.9616 330.693 104.924C329.471 112.429 327.99 119.88 326.422 127.309C324.421 136.717 322.269 146.093 320.042 155.425C317.475 166.153 314.818 176.855 312.072 187.532C309.145 198.951 306.135 210.349 303.042 221.725C299.892 233.383 296.669 245.026 293.374 256.654C290.181 267.937 286.919 279.198 283.588 290.437C280.538 300.732 277.42 311.002 274.234 321.246C271.476 330.092 268.654 338.905 265.702 347.686C263.442 354.423 261.117 361.149 258.575 367.8C258.089 369.076 257.591 370.363 257.083 371.628C256.694 372.601 258.262 373.023 258.64 372.061L258.651 371.996Z" fill="#1A0933"/>
<path d="M317.749 171.3C334.867 162.734 350.603 151.649 364.433 138.415C368.324 134.731 372.02 130.847 375.506 126.779C376.187 125.99 375.041 124.843 374.36 125.633C361.728 140.09 346.923 152.494 330.477 162.4C326.079 165.096 321.57 167.594 316.949 169.894C316.008 170.359 316.83 171.754 317.771 171.289L317.749 171.3Z" fill="#1A0933"/>
<path d="M413.236 152.57C413.228 151.562 412.938 150.576 412.399 149.724C411.86 148.871 411.094 148.187 410.186 147.747C408.429 146.993 406.53 146.624 404.617 146.666L354.808 144.417L355.987 144.687C370.712 154.067 387.991 158.633 405.428 157.75C407.119 157.737 408.788 157.368 410.327 156.669C411.116 156.284 411.796 155.707 412.304 154.991C412.813 154.274 413.133 153.442 413.236 152.57Z" fill="#1A0933"/>
<path d="M361.924 141.335C375.182 131.656 388.548 119.707 397.372 100.566C398.507 98.1006 399.016 94.4996 397.372 92.4558C396.761 91.8369 395.955 91.4475 395.09 91.353C394.226 91.2585 393.355 91.4646 392.625 91.9367C391.141 92.949 389.909 94.2882 389.023 95.8513C379.14 110.645 369.342 124.703 361.675 140.924" fill="#1A0933"/>
<path d="M357.944 123.34C358.691 121.474 359.059 119.478 359.026 117.468C358.885 115.457 357.782 113.391 356.009 112.829C355.255 112.649 354.468 112.674 353.728 112.903C352.988 113.131 352.323 113.554 351.802 114.127C350.707 115.327 349.865 116.736 349.326 118.268C344.589 129.796 344.859 143.032 341.41 155.101L340.015 158.431C347.691 147.684 353.734 135.858 357.944 123.34Z" fill="#1A0933"/>
<path d="M289.936 270.128C276.685 257.784 265.382 243.502 256.412 227.77C253.817 223.235 251.416 218.607 249.21 213.885C248.767 212.944 247.372 213.766 247.815 214.707C255.537 231.301 265.683 246.656 277.921 260.266C281.382 264.094 285.008 267.764 288.8 271.274C289.557 271.988 290.714 270.842 289.946 270.128H289.936Z" fill="#1A0933"/>
<path d="M205.057 227.533C205.308 226.576 205.834 225.713 206.571 225.052C207.307 224.391 208.22 223.96 209.199 223.813C211.098 223.625 213.016 223.846 214.822 224.462L263.279 237.276L262.079 237.168C245.316 241.757 227.535 240.955 211.254 234.875C209.615 234.363 208.099 233.52 206.798 232.399C206.133 231.792 205.626 231.031 205.322 230.183C205.019 229.334 204.928 228.424 205.057 227.533Z" fill="#1A0933"/>
<path d="M257.148 232.734C246.831 219.454 237.001 203.915 233.357 182.892C232.881 180.178 233.357 176.566 235.455 175.117C236.904 174.133 238.905 174.749 240.148 176.036C241.312 177.453 242.153 179.106 242.614 180.881C248.356 198.032 254.217 214.566 257.494 232.463" fill="#1A0933"/>
<path d="M265.55 216.621C265.301 214.619 265.448 212.587 265.983 210.641C266.632 208.76 268.2 207.105 270.049 207.094C270.833 207.156 271.587 207.419 272.239 207.859C272.891 208.298 273.418 208.899 273.769 209.603C274.518 211.076 274.974 212.681 275.11 214.329C276.753 226.84 273.163 239.482 273.434 252.113L273.942 255.735C269.288 243.166 266.462 229.994 265.55 216.621Z" fill="#1A0933"/>
<path d="M357.76 89.8822C357.998 88.2277 357.815 86.292 356.603 85.2755C354.635 83.6209 351.867 85.5891 350.115 87.5248C340.715 98.0998 333.458 110.399 328.747 123.741L328.563 126.13C338.071 118.633 346.394 109.745 353.251 99.7661C355.252 96.7923 357.241 93.5697 357.76 89.8822Z" fill="#1A0933"/>
<path d="M334.24 98.2951C336.608 85.5995 337.679 72.4174 335.387 59.711C335.057 57.358 334.325 55.0791 333.224 52.9739C332.71 51.9638 331.972 51.0842 331.067 50.4021C330.162 49.72 329.113 49.2533 328.001 49.0377C324.843 48.6484 321.88 51.3302 320.712 54.5528C319.544 57.7753 319.793 61.398 320.334 64.8152C322.367 77.7919 328.13 89.7737 333.937 101.366" fill="#1A0933"/>
<path d="M323.621 138.069C318.792 128.002 312.718 118.581 305.54 110.028C304.732 108.953 303.735 108.033 302.599 107.314C302.047 106.965 301.413 106.77 300.76 106.749C300.108 106.728 299.462 106.882 298.89 107.195C298.229 107.732 297.732 108.443 297.454 109.247C297.177 110.052 297.131 110.918 297.322 111.748C297.714 113.407 298.45 114.966 299.484 116.322C306.05 126.024 314.51 134.296 324.356 140.643" fill="#1A0933"/>
<path d="M296.456 169.483C299.915 157.899 301.065 145.749 299.841 133.722C299.811 132.217 299.441 130.738 298.76 129.396C298.447 128.767 297.926 128.265 297.286 127.975C296.645 127.685 295.924 127.626 295.245 127.807C293.699 128.434 293.223 130.532 293.028 132.327C291.754 144.265 292.985 156.338 296.64 167.775" fill="#1A0933"/>
<path d="M283.804 148.807C276.007 132.64 259.148 122.237 242.441 123.265C240.094 123.405 237.25 124.205 236.645 126.693C236.039 129.18 238.223 131.462 240.278 132.781C252.909 140.805 269.941 139.269 280.841 149.856" fill="#1A0933"/>
<path d="M294.78 168.694C287.798 164.851 279.8 163.257 271.878 164.13C263.956 165.003 256.497 168.3 250.519 173.571C248.432 175.42 246.334 178.362 247.502 181.011C247.854 181.722 248.392 182.324 249.058 182.754C249.724 183.184 250.494 183.427 251.287 183.455C252.834 183.452 254.367 183.158 255.807 182.59L296.229 169.343" fill="#1A0933"/>
<path d="M275.358 322.749C281.322 315.616 288.102 309.206 295.559 303.652C302.822 298.109 310.634 293.326 318.874 289.378C322.923 287.436 327.126 285.834 331.439 284.587C331.542 284.559 331.639 284.51 331.723 284.445C331.807 284.379 331.878 284.297 331.93 284.204C331.983 284.112 332.017 284.009 332.03 283.903C332.043 283.797 332.036 283.69 332.007 283.587C331.979 283.484 331.93 283.387 331.865 283.303C331.799 283.219 331.717 283.148 331.625 283.096C331.532 283.043 331.429 283.009 331.323 282.996C331.217 282.983 331.11 282.991 331.007 283.019C322.923 285.47 315.192 288.96 308.006 293.4C299.803 298.229 292.114 303.882 285.059 310.27C281.185 313.782 277.571 317.57 274.245 321.603C273.585 322.403 274.731 323.56 275.391 322.749H275.358Z" fill="#1A0933"/>
<path d="M300.631 298.472C302.739 286.709 307.189 275.489 313.715 265.478C314.407 264.217 315.39 263.138 316.581 262.332C317.168 261.958 317.868 261.803 318.559 261.894C319.249 261.985 319.885 262.316 320.355 262.829C321.437 264.202 320.896 266.289 320.269 267.955C316.04 279.028 308.882 290.556 300.631 298.472Z" fill="#1A0933"/>
<path d="M366.141 286.825C352.029 276.984 331.71 277.958 317.663 287.907L319.825 288.988C334.089 285.56 349.185 296.558 363.795 296.266C366.174 296.266 369.083 295.433 369.688 292.913C370.294 290.394 368.12 288.209 366.141 286.825Z" fill="#1A0933"/>
<path d="M301.712 297.304C317.392 297.855 332.315 309.296 338.112 325.225C339.106 327.95 339.615 331.638 337.409 333.325C336.76 333.757 336.003 333.997 335.224 334.016C334.445 334.035 333.676 333.833 333.007 333.433C331.649 332.592 330.449 331.52 329.46 330.265C319.728 319.202 310.396 309.523 300.62 298.472" fill="#1A0933"/>
<path d="M321.177 233.372C333.305 239.523 344.411 247.507 354.105 257.044C355.273 258.19 356.571 259.423 358.139 259.444C360.388 259.444 362.043 256.773 361.891 254.318C361.583 251.926 360.501 249.701 358.809 247.982C353.975 242.683 347.822 238.761 340.977 236.616C334.338 234.356 327.406 233.372 320.507 232.291" fill="#1A0933"/>
<path d="M187.676 366.522C189.815 346.849 197.604 328.215 210.104 312.874C210.753 312.074 209.618 310.917 208.958 311.728C196.126 327.358 188.163 346.409 186.054 366.522C185.946 367.603 187.568 367.549 187.676 366.522Z" fill="#1A0933"/>
<path d="M206.525 314.334C213.694 319.222 221.005 324.185 229.299 326.716C237.593 329.246 247.185 329.019 254.29 324.034C254.772 323.754 255.152 323.325 255.371 322.812C255.449 322.475 255.43 322.123 255.317 321.796C255.204 321.469 255.002 321.181 254.733 320.963C254.187 320.541 253.556 320.242 252.884 320.087C250.159 319.336 247.378 318.805 244.568 318.497C233.127 316.983 218.042 314.777 206.514 314.334" fill="#ED9E8F"/>
<path d="M259.427 297.281C258.12 295.705 256.258 294.691 254.225 294.447C249.899 293.788 245.65 295.788 241.724 297.692L208.623 314.075L207.044 315.156C213.752 314.882 220.439 314.225 227.071 313.188C237.117 311.847 247.391 310.463 256.42 305.856C257.865 305.261 259.105 304.258 259.989 302.969C260.446 302.065 260.636 301.05 260.536 300.043C260.437 299.035 260.052 298.077 259.427 297.281Z" fill="#ED9E8F"/>
<path d="M234.911 275.339C232.868 273.792 229.937 274.322 227.58 275.339C220.194 278.421 214.743 285.136 211.759 292.565C208.774 299.995 208.017 308.127 207.92 316.14L208.277 316.302C215.306 304.623 228.25 297.388 234.987 285.547C235.979 283.969 236.618 282.194 236.858 280.346C236.972 279.415 236.854 278.471 236.514 277.597C236.175 276.724 235.624 275.948 234.911 275.339Z" fill="#ED9E8F"/>
<path d="M207.325 314.745C200.504 310.985 193.137 308.315 185.492 306.829C184.151 306.57 182.529 306.44 181.62 307.456C180.712 308.473 181.08 310.214 181.718 311.501C182.914 313.922 184.699 316.004 186.909 317.557C189.118 319.11 191.682 320.084 194.365 320.39C197.049 320.695 199.766 320.323 202.268 319.306C204.77 318.29 206.977 316.662 208.688 314.572L207.325 314.745Z" fill="#ED9E8F"/>
<path d="M210.115 316.194C205.964 305.732 204.209 294.473 204.978 283.244C205.248 281.278 205.208 279.282 204.86 277.329C204.671 276.353 204.225 275.447 203.567 274.703C202.909 273.959 202.063 273.406 201.118 273.1C199.972 272.889 198.789 273.013 197.712 273.457C195.587 274.304 193.695 275.644 192.19 277.366C190.686 279.088 189.613 281.144 189.06 283.363C187.97 287.85 188.408 292.572 190.304 296.783C192.214 300.947 194.875 304.723 198.155 307.921C201.808 311.664 205.917 314.934 210.385 317.654L210.115 316.194Z" fill="#ED9E8F"/>
<path d="M223.914 327.776C223.016 326.776 221.999 325.89 220.886 325.137C216.376 321.893 211.153 316.757 206.579 313.556C206.406 318.022 206.363 322.207 207.877 326.435C209.391 330.663 212.927 334.589 217.609 335.421C219.219 335.754 220.893 335.581 222.4 334.924C223.124 334.613 223.757 334.123 224.241 333.501C224.725 332.879 225.044 332.145 225.168 331.366C225.237 330.051 224.787 328.762 223.914 327.776Z" fill="#ED9E8F"/>
<path d="M204.719 313.285C205.13 312.283 205.85 311.438 206.774 310.873C207.238 310.597 207.769 310.452 208.309 310.452C208.85 310.452 209.38 310.597 209.845 310.873C210.23 311.17 210.544 311.549 210.763 311.984C210.982 312.418 211.101 312.896 211.11 313.382C211.117 314.352 210.983 315.317 210.71 316.248C208.677 316.248 205.8 315.167 204.719 313.263" fill="#FFDBC3"/>
<path d="M183.534 326.727C178.335 324.369 172.451 324.003 167 325.699C171.964 335.302 184.421 340.093 195.116 338.568C192.838 333.335 188.716 329.121 183.534 326.727Z" fill="#1A0933"/>
<path d="M197.203 344.126C194.222 345.091 191.698 347.114 190.109 349.814C195.668 351.88 202.502 349.23 206.33 344.656C203.456 343.366 200.208 343.178 197.203 344.126Z" fill="#1A0933"/>
<path d="M68.4428 65.7274C70.7517 85.8053 74.3091 105.72 79.0945 125.355C83.8202 145.145 89.4758 164.686 95.4019 184.151C101.328 203.616 107.557 223.081 113.429 242.546C119.301 262.011 124.762 281.53 129.239 301.33C133.853 321.174 137.104 341.309 138.971 361.596C139.187 364.105 139.371 366.625 139.544 369.166C139.609 370.247 141.231 370.247 141.166 369.166C139.752 349.046 136.912 329.051 132.667 309.333C128.492 289.478 123.215 269.883 117.527 250.429C111.839 230.975 105.632 211.499 99.5869 192.034C93.5419 172.569 87.7672 153.104 82.7928 133.347C77.6563 113.558 73.7058 93.4808 70.9624 73.2215C70.638 70.7235 70.346 68.2146 70.0649 65.6517C69.9567 64.6244 68.3346 64.5703 68.4428 65.6517V65.7274Z" fill="#1A0933"/>
<path d="M102.55 202.253C107.169 177.284 114.206 152.823 123.561 129.216C126.222 122.482 129.055 115.821 132.061 109.232C132.494 108.291 131.088 107.458 130.666 108.41C120.078 131.529 111.682 155.591 105.589 180.279C103.851 187.431 102.319 194.64 100.993 201.907C100.798 202.923 102.366 203.367 102.55 202.34V202.253Z" fill="#1A0933"/>
<path d="M93.477 175.954C85.8207 162.761 78.0564 149.417 67.5236 138.667C65.4365 136.505 63.198 134.45 60.3756 133.563C57.5532 132.677 54.2117 133.282 52.4814 135.726C50.7512 138.17 51.1513 141.847 52.6869 144.475C54.2225 147.102 56.6664 148.962 59.0455 150.747L93.9961 177.003L93.477 175.954Z" fill="#1A0933"/>
<path d="M133.705 175.835C131.953 175.337 127.757 176.592 126.34 177.803C119.333 183.826 115.7 190.78 112.715 199.863C109.73 208.947 109.752 219.966 109.665 229.558L110.996 234.879C113.642 222.329 118.928 210.485 126.503 200.134C130.428 194.802 135.154 189.612 136.365 182.961C136.895 180.193 136.268 176.549 133.705 175.835Z" fill="#1A0933"/>
<path d="M154.467 245.055C152.716 244.557 148.509 245.801 147.103 247.023C140.096 253.046 136.462 260 133.478 269.083C130.493 278.167 130.504 289.186 130.428 298.778L131.747 304.099C134.399 291.55 139.684 279.707 147.255 269.354C151.18 264.012 155.906 258.821 157.128 252.181C157.647 249.402 157.03 245.768 154.467 245.055Z" fill="#1A0933"/>
<path d="M94.2989 291.782C95.4992 290.581 99.3706 289.619 100.993 289.954C109.06 291.544 114.824 295.458 120.901 301.33C126.979 307.202 131.455 316.059 135.435 323.704L136.516 328.581C129.336 319.773 120.262 312.698 109.968 307.884C104.648 305.429 98.7866 303.428 95.0666 298.692C93.477 296.745 92.5362 293.544 94.2989 291.782Z" fill="#1A0933"/>
<path d="M145.892 138.764C144.811 137.683 141.242 136.829 139.761 137.132C132.385 138.635 127.141 142.236 121.604 147.643C116.067 153.05 112.023 161.16 108.422 168.189L107.438 172.644C113.971 164.561 122.244 158.056 131.639 153.612C136.484 151.341 141.837 149.481 145.222 145.134C146.627 143.306 147.547 140.365 145.892 138.764Z" fill="#1A0933"/>
<path d="M97.9972 94.2438C96.5049 94.0491 93.1742 95.5955 92.1361 96.7634C87.0103 102.603 84.761 108.81 83.2686 116.639C81.7763 124.469 82.9875 133.585 83.9607 141.511L85.6261 145.74C86.4631 135.03 89.5472 124.617 94.6773 115.18C97.3376 110.292 100.636 105.447 100.96 99.7913C101.101 97.4447 100.192 94.5141 97.9972 94.2438Z" fill="#1A0933"/>
<path d="M134.375 74.0112C134.029 71.0806 133.164 67.7607 130.785 66.8524C128.406 65.944 125.994 67.8689 124.816 70.3561C123.789 72.9554 123.386 75.7589 123.637 78.5422C123.929 87.9936 123.637 105.166 129.498 111.243L129.985 110.162C131.628 102.203 135.219 81.3646 134.375 74.0112Z" fill="#ED9E8F"/>
<g opacity="0.3">
<path d="M134.375 74.0112C134.029 71.0806 133.164 67.7607 130.785 66.8524C128.406 65.944 125.994 67.8689 124.816 70.3561C123.789 72.9554 123.386 75.7589 123.637 78.5422C123.929 87.9936 123.637 105.166 129.498 111.243L129.985 110.162C131.628 102.203 135.219 81.3646 134.375 74.0112Z" fill="black"/>
</g>
<path d="M162.686 97.2716C164.784 95.3359 166.893 92.7298 166.287 90.1236C165.714 87.6905 162.837 86.4361 160.242 86.7713C157.647 87.1065 155.3 88.6529 153.191 90.2642C145.968 95.7576 132.375 104.982 130.893 113.59L131.975 113.417C139.155 110.465 157.42 102.105 162.686 97.2716Z" fill="#ED9E8F"/>
<g opacity="0.3">
<path d="M162.686 97.2716C164.784 95.3359 166.893 92.7298 166.287 90.1236C165.714 87.6905 162.837 86.4361 160.242 86.7713C157.647 87.1065 155.3 88.6529 153.191 90.2642C145.968 95.7576 132.375 104.982 130.893 113.59L131.975 113.417C139.155 110.465 157.42 102.105 162.686 97.2716Z" fill="black"/>
</g>
<path d="M166.59 103.944C165.811 101.359 162.87 100.354 160.329 100.235C155.416 100.149 150.575 101.417 146.335 103.9C143.762 105.295 139.014 107.231 134.765 109.21C140.73 102.272 146.194 94.9177 151.115 87.2038C154.121 82.6187 154.067 77.8282 153.278 75.6546C153.026 74.959 152.626 74.3268 152.105 73.802C151.584 73.2771 150.955 72.8723 150.261 72.6158C148.901 72.1342 147.437 72.0259 146.022 72.3022C139.588 73.3187 135.284 80.629 132.905 87.074C130.525 94.3285 128.962 101.826 128.244 109.426C128.452 100.397 127.158 91.3966 124.416 82.7917C123.432 79.7206 121.734 76.3034 118.728 75.7843C115.916 75.2761 113.212 77.7308 112.315 80.6073C111.417 83.4838 111.904 86.6415 112.553 89.5937C114.802 99.6614 119.452 109.708 127.692 115.158C133.099 117.18 139.252 117.321 144.994 117.234C148.778 117.313 152.553 116.836 156.198 115.817C159.893 114.739 163.121 112.455 165.368 109.329C165.951 108.574 166.362 107.701 166.573 106.771C166.784 105.841 166.79 104.876 166.59 103.944Z" fill="#ED9E8F"/>
<path d="M144.4 111.514C144.146 110.968 143.734 110.513 143.217 110.206C142.699 109.899 142.102 109.755 141.502 109.794C139.224 109.758 136.981 110.345 135.013 111.492C133.824 112.141 131.628 113.028 129.66 113.947C132.425 110.745 134.955 107.348 137.23 103.782C137.776 103.019 138.154 102.15 138.341 101.232C138.527 100.313 138.517 99.365 138.311 98.4504C138.195 98.1289 138.01 97.8366 137.769 97.5939C137.528 97.3511 137.237 97.1637 136.916 97.0446C136.289 96.8223 135.614 96.7701 134.959 96.8932C131.985 97.369 129.996 100.743 128.893 103.717C127.793 107.069 127.068 110.532 126.73 114.044C126.829 109.876 126.233 105.721 124.967 101.749C124.513 100.321 123.724 98.7532 122.339 98.5044C121.663 98.4711 120.996 98.6757 120.455 99.0826C119.914 99.4895 119.532 100.073 119.376 100.732C119.056 102.103 119.093 103.533 119.484 104.885C120.566 109.535 122.675 114.174 126.481 116.693C129.068 117.496 131.78 117.819 134.483 117.645C136.211 117.68 137.934 117.462 139.598 116.996C141.306 116.505 142.799 115.454 143.837 114.012C144.107 113.661 144.296 113.256 144.393 112.824C144.491 112.393 144.493 111.946 144.4 111.514Z" fill="#1A0933"/>
<path d="M35.9794 22.0825C32.9299 20.1468 29.1125 18.4707 26.3874 20.3199C23.8462 22.0393 23.5758 26.2675 25.0141 29.4901C26.4523 32.7126 29.1558 35.1025 31.8485 37.1896C41.0295 44.2835 57.0341 58.1361 67.4263 56.5573L66.7774 55.1731C60.527 47.16 43.614 26.938 35.9794 22.0825Z" fill="#ED9E8F"/>
<g opacity="0.3">
<path d="M35.9794 22.0825C32.9299 20.1468 29.1125 18.4707 26.3874 20.3199C23.8462 22.0393 23.5758 26.2675 25.0141 29.4901C26.4523 32.7126 29.1558 35.1025 31.8485 37.1896C41.0295 44.2835 57.0341 58.1361 67.4263 56.5573L66.7774 55.1731C60.527 47.16 43.614 26.938 35.9794 22.0825Z" fill="black"/>
</g>
<path d="M80.2516 9.87356C80.0677 6.0995 79.2567 1.78475 76.3045 0.38976C73.5578 -0.90791 70.0973 1.20081 68.3887 4.26114C66.6801 7.32148 66.2908 11.0415 66.161 14.5884C65.7068 26.6676 63.7603 48.5333 70.7569 56.8817L71.4815 55.5299C74.2715 45.5595 80.6949 19.3357 80.2516 9.87356Z" fill="#ED9E8F"/>
<g opacity="0.3">
<path d="M80.2516 9.87356C80.0677 6.0995 79.2567 1.78475 76.3045 0.38976C73.5578 -0.90791 70.0973 1.20081 68.3887 4.26114C66.6801 7.32148 66.2908 11.0415 66.161 14.5884C65.7068 26.6676 63.7603 48.5333 70.7569 56.8817L71.4815 55.5299C74.2715 45.5595 80.6949 19.3357 80.2516 9.87356Z" fill="black"/>
</g>
<path d="M89.6272 10.9226C86.5669 9.74388 83.3119 12.1121 81.2032 14.7507C77.1588 19.7792 74.8554 26.181 73.6334 32.6802C72.9414 36.5408 71.0381 43.1697 69.5782 49.3012C67.9561 37.6114 64.593 24.905 61.5651 14.4371C59.6402 7.58109 55.0551 3.89355 52.3841 2.93111C51.5012 2.66121 50.5681 2.59787 49.6568 2.746C48.7455 2.89413 47.8805 3.24976 47.1285 3.78541C45.585 4.90888 44.341 6.39424 43.5059 8.11098C39.4182 15.8321 42.9652 26.2027 47.2042 33.8265C50.8485 40.3689 58.5372 50.1879 64.712 56.3951C56.4033 49.1248 46.8388 43.4301 36.4876 39.5903C32.7893 38.2385 28.2474 37.4275 25.3709 40.2067C22.6891 42.8345 22.8945 47.6683 24.9167 50.8908C26.939 54.1134 30.3237 56.0815 33.5679 57.6928C44.8684 63.1754 58.0398 66.0736 69.6756 61.4669C75.8719 57.2062 80.8031 50.7286 85.2476 44.4566C88.2648 40.4772 90.7378 36.1131 92.6011 31.4799C94.4847 26.7344 94.8622 21.5241 93.6825 16.5566C93.1093 14.1668 91.8116 11.7661 89.6272 10.9226Z" fill="#ED9E8F"/>
<g opacity="0.6">
<path d="M89.6272 10.9226C86.5669 9.74388 83.3119 12.1121 81.2032 14.7507C77.1588 19.7792 74.8554 26.181 73.6334 32.6802C72.9414 36.5408 71.0381 43.1697 69.5782 49.3012C67.9561 37.6114 64.593 24.905 61.5651 14.4371C59.6402 7.58109 55.0551 3.89355 52.3841 2.93111C51.5012 2.66121 50.5681 2.59787 49.6568 2.746C48.7455 2.89413 47.8805 3.24976 47.1285 3.78541C45.585 4.90888 44.341 6.39424 43.5059 8.11098C39.4182 15.8321 42.9652 26.2027 47.2042 33.8265C50.8485 40.3689 58.5372 50.1879 64.712 56.3951C56.4033 49.1248 46.8388 43.4301 36.4876 39.5903C32.7893 38.2385 28.2474 37.4275 25.3709 40.2067C22.6891 42.8345 22.8945 47.6683 24.9167 50.8908C26.939 54.1134 30.3237 56.0815 33.5679 57.6928C44.8684 63.1754 58.0398 66.0736 69.6756 61.4669C75.8719 57.2062 80.8031 50.7286 85.2476 44.4566C88.2648 40.4772 90.7378 36.1131 92.6011 31.4799C94.4847 26.7344 94.8622 21.5241 93.6825 16.5566C93.1093 14.1668 91.8116 11.7661 89.6272 10.9226Z" fill="#FFDBC3"/>
</g>
<path d="M79.4189 40.7795C78.0131 40.228 76.5099 41.331 75.5259 42.5422C73.7037 44.975 72.5112 47.8206 72.0546 50.8256C71.741 52.6099 70.8651 55.6703 70.1838 58.5035C69.3099 53.042 68.0597 47.6475 66.4422 42.3583C66.1721 41.2148 65.6506 40.1458 64.9154 39.2292C64.1802 38.3126 63.25 37.5714 62.1923 37.0595C61.7849 36.9362 61.3546 36.9082 60.9346 36.9776C60.5146 37.047 60.1162 37.2119 59.77 37.4596C59.0577 37.9766 58.4823 38.6596 58.0938 39.4494C56.2122 43.018 57.8451 47.8086 59.8024 51.3447C62.0884 55.1161 64.8027 58.6106 67.8912 61.7585C64.0531 58.4006 59.6332 55.7728 54.8497 54.0049C53.1519 53.3777 51.0432 52.9884 49.7131 54.2861C48.3829 55.5838 48.6317 57.7357 49.5076 59.228C50.5317 60.6263 51.9245 61.7121 53.5304 62.3641C58.7427 64.8945 64.8309 66.2355 70.2054 64.1051C73.0341 61.9189 75.4665 59.2634 77.3967 56.2542C78.7913 54.4102 79.9333 52.3882 80.7923 50.2417C81.6611 48.0472 81.8348 45.6388 81.2897 43.3424C81.189 42.8026 80.9687 42.2922 80.645 41.8487C80.3213 41.4053 79.9023 41.0399 79.4189 40.7795Z" fill="#1A0933"/>
<path d="M8.93377 217.295C5.40844 217.706 1.36403 218.82 0.282639 222.042C-0.798753 225.049 1.36403 228.596 4.3703 230.25C7.37657 231.905 10.8586 232.067 14.1785 232.002C25.5223 231.775 46.1228 232.554 53.5304 224.605L52.2219 223.924C42.7165 221.545 17.7796 216.268 8.93377 217.295Z" fill="#ED9E8F"/>
<g opacity="0.3">
<path d="M8.93377 217.295C5.40844 217.706 1.36403 218.82 0.282639 222.042C-0.798753 225.049 1.36403 228.596 4.3703 230.25C7.37657 231.905 10.8586 232.067 14.1785 232.002C25.5223 231.775 46.1228 232.554 53.5304 224.605L52.2219 223.924C42.7165 221.545 17.7796 216.268 8.93377 217.295Z" fill="black"/>
</g>
<path d="M37.3528 179.122C35.0818 176.235 31.9458 173.305 28.853 174.094C25.9116 174.818 24.3544 178.722 24.7113 182.269C25.0681 185.816 26.8741 189.017 28.7881 191.937C35.2765 201.864 46.0904 220.572 56.3744 222.735L56.1798 221.199C52.7734 211.445 43.0625 186.4 37.3528 179.122Z" fill="#ED9E8F"/>
<g opacity="0.3">
<path d="M37.3528 179.122C35.0818 176.235 31.9458 173.305 28.853 174.094C25.9116 174.818 24.3544 178.722 24.7113 182.269C25.0681 185.816 26.8741 189.017 28.7881 191.937C35.2765 201.864 46.0904 220.572 56.3744 222.735L56.1798 221.199C52.7734 211.445 43.0625 186.4 37.3528 179.122Z" fill="black"/>
</g>
<path d="M45.4416 173.932C42.3272 174.959 41.116 178.939 40.8673 182.399C40.669 189.022 42.0946 195.594 45.0198 201.54C46.6527 205.065 48.8804 211.575 51.1946 217.404C43.2896 209.12 33.4165 201.183 25.0681 194.694C19.6612 190.499 13.8757 190.499 11.248 191.45C10.3742 191.82 9.59117 192.376 8.9527 193.078C8.31422 193.779 7.83553 194.612 7.54959 195.516C6.94425 197.375 6.78859 199.35 7.09541 201.28C8.1768 210.061 16.8928 216.063 24.5923 219.426C31.1888 222.313 42.8895 225.201 51.3243 226.185C40.4459 225.745 29.5816 227.348 19.2935 230.91C15.5843 232.197 11.475 234.446 10.7721 238.545C10.1233 242.362 13.0106 246.115 16.4603 247.358C19.9099 248.602 23.684 248.039 27.2742 247.196C39.3858 244.32 51.5406 238.166 58.2236 227.028C60.7541 219.642 61.0352 211.315 61.0352 203.454C61.1897 198.363 60.6844 193.275 59.5321 188.314C58.2452 183.426 55.7688 178.744 51.9623 175.716C50.0483 174.289 47.6584 173.207 45.4416 173.932Z" fill="#ED9E8F"/>
<g opacity="0.6">
<path d="M45.4416 173.932C42.3272 174.959 41.116 178.939 40.8673 182.399C40.669 189.022 42.0946 195.594 45.0198 201.54C46.6527 205.065 48.8804 211.575 51.1946 217.404C43.2896 209.12 33.4165 201.183 25.0681 194.694C19.6612 190.499 13.8757 190.499 11.248 191.45C10.3742 191.82 9.59117 192.376 8.9527 193.078C8.31422 193.779 7.83553 194.612 7.54959 195.516C6.94425 197.375 6.78859 199.35 7.09541 201.28C8.1768 210.061 16.8928 216.063 24.5923 219.426C31.1888 222.313 42.8895 225.201 51.3243 226.185C40.4459 225.745 29.5816 227.348 19.2935 230.91C15.5843 232.197 11.475 234.446 10.7721 238.545C10.1233 242.362 13.0106 246.115 16.4603 247.358C19.9099 248.602 23.684 248.039 27.2742 247.196C39.3858 244.32 51.5406 238.166 58.2236 227.028C60.7541 219.642 61.0352 211.315 61.0352 203.454C61.1897 198.363 60.6844 193.275 59.5321 188.314C58.2452 183.426 55.7688 178.744 51.9623 175.716C50.0483 174.289 47.6584 173.207 45.4416 173.932Z" fill="#FFDBC3"/>
</g>
<path d="M54.1143 204.308C52.6869 204.784 52.1029 206.622 52.0056 208.223C51.9161 211.277 52.577 214.307 53.9305 217.047C54.6766 218.68 55.7148 221.686 56.7745 224.379C53.0192 220.593 48.9891 217.091 44.717 213.9C43.8447 213.166 42.8107 212.648 41.6997 212.391C40.5887 212.133 39.4326 212.143 38.326 212.419C37.923 212.589 37.5616 212.844 37.2666 213.167C36.9717 213.49 36.7502 213.873 36.6174 214.289C36.3381 215.151 36.2676 216.066 36.4119 216.96C36.9202 221.016 40.9322 223.784 44.4899 225.341C48.4613 226.888 52.6097 227.934 56.8394 228.456C51.8164 228.245 46.7985 228.979 42.046 230.618C40.3266 231.213 38.4341 232.251 38.1097 234.144C38.0315 235.019 38.2475 235.895 38.7235 236.633C39.1995 237.372 39.9083 237.93 40.7375 238.221C42.3673 238.683 44.097 238.657 45.7119 238.145C51.3135 236.815 56.9259 233.971 60.0079 228.823C61.0267 225.288 61.465 221.61 61.3056 217.934C61.3745 215.589 61.1419 213.245 60.6135 210.959C60.0928 208.7 58.8655 206.666 57.1098 205.152C56.7164 204.779 56.2381 204.507 55.7162 204.36C55.1944 204.213 54.6446 204.195 54.1143 204.308Z" fill="#1A0933"/>
<path d="M57.0773 228.585C76.5424 235.928 95.4559 245.304 111.147 259.189C114.532 262.184 117.743 265.353 120.879 268.64C120.968 268.726 121.075 268.791 121.192 268.831C121.309 268.87 121.434 268.882 121.557 268.867C121.679 268.851 121.797 268.808 121.9 268.741C122.004 268.673 122.091 268.583 122.156 268.478L139.198 242.438L166.125 201.291L172.256 191.926C172.83 191.05 171.424 190.239 170.861 191.115L153.819 217.144L126.881 258.291L120.75 267.656L122.026 267.494C116.303 261.359 110.042 255.749 103.318 250.732C95.1446 244.775 86.4172 239.618 77.2561 235.333C70.7678 232.262 64.2794 229.537 57.5532 227.017C56.5691 226.65 56.1473 228.218 57.1206 228.585H57.0773Z" fill="#1A0933"/>
<path d="M176.571 150C176.236 147.069 175.371 143.749 172.992 142.841C170.613 141.933 168.19 143.858 167.022 146.345C165.995 148.948 165.592 151.755 165.844 154.542C166.136 163.982 165.844 181.155 171.705 187.232L172.191 186.151C173.835 178.116 177.425 157.321 176.571 150Z" fill="#ED9E8F"/>
<g opacity="0.3">
<path d="M176.571 150C176.236 147.069 175.371 143.749 172.992 142.841C170.613 141.933 168.19 143.858 167.022 146.345C165.995 148.948 165.592 151.755 165.844 154.542C166.136 163.982 165.844 181.155 171.705 187.232L172.191 186.151C173.835 178.116 177.425 157.321 176.571 150Z" fill="black"/>
</g>
<path d="M204.86 173.229C206.969 171.304 209.078 168.698 208.461 166.081C207.899 163.647 205.012 162.393 202.416 162.728C199.821 163.064 197.485 164.61 195.366 166.221C188.153 171.725 174.549 180.939 173.078 189.547L174.16 189.374C181.362 186.422 199.626 178.117 204.86 173.229Z" fill="#ED9E8F"/>
<g opacity="0.3">
<path d="M204.86 173.229C206.969 171.304 209.078 168.698 208.461 166.081C207.899 163.647 205.012 162.393 202.416 162.728C199.821 163.064 197.485 164.61 195.366 166.221C188.153 171.725 174.549 180.939 173.078 189.547L174.16 189.374C181.362 186.422 199.626 178.117 204.86 173.229Z" fill="black"/>
</g>
<path d="M208.797 179.901C208.007 177.316 205.077 176.321 202.535 176.192C197.623 176.111 192.784 177.379 188.542 179.857C185.968 181.263 181.21 183.188 176.96 185.178C182.93 178.239 188.394 170.881 193.311 163.161C196.328 158.576 196.263 153.785 195.539 151.612C195.287 150.916 194.887 150.284 194.366 149.759C193.845 149.234 193.215 148.829 192.522 148.573C191.161 148.097 189.699 147.989 188.283 148.259C181.848 149.276 177.544 156.586 175.165 163.042C172.787 170.293 171.22 177.786 170.494 185.383C170.706 176.359 169.416 167.361 166.676 158.76C165.682 155.678 163.995 152.271 160.977 151.741C158.166 151.233 155.473 153.688 154.576 156.575C153.678 159.462 154.154 162.598 154.814 165.551C157.052 175.618 161.702 185.665 169.953 191.115C175.36 193.137 181.513 193.278 187.255 193.191C191.01 193.267 194.756 192.79 198.372 191.774C202.068 190.704 205.295 188.418 207.531 185.286C208.12 184.534 208.537 183.662 208.756 182.732C208.974 181.803 208.988 180.836 208.797 179.901Z" fill="#ED9E8F"/>
<path d="M186.606 187.471C186.352 186.926 185.939 186.471 185.422 186.165C184.905 185.858 184.308 185.714 183.708 185.751C181.431 185.714 179.187 186.301 177.22 187.449C176.03 188.098 173.835 188.985 171.867 189.904C174.628 186.699 177.158 183.302 179.437 179.739C179.98 178.975 180.357 178.106 180.544 177.188C180.73 176.269 180.721 175.322 180.518 174.407C180.402 174.086 180.216 173.794 179.976 173.551C179.735 173.308 179.444 173.121 179.123 173.002C178.491 172.784 177.813 172.732 177.155 172.85C174.192 173.326 172.202 176.7 171.099 179.685C169.999 183.033 169.273 186.493 168.937 190.001C169.03 185.833 168.435 181.679 167.174 177.706C166.709 176.278 165.93 174.71 164.535 174.461C163.861 174.431 163.197 174.636 162.658 175.043C162.119 175.45 161.739 176.032 161.583 176.689C161.262 178.06 161.299 179.49 161.691 180.842C162.773 185.492 164.87 190.131 168.688 192.65C171.275 193.452 173.986 193.778 176.69 193.613C178.418 193.637 180.14 193.415 181.805 192.953C183.511 192.465 185.002 191.413 186.033 189.969C186.306 189.62 186.499 189.215 186.598 188.783C186.697 188.352 186.7 187.904 186.606 187.471Z" fill="#1A0933"/>
<path d="M139.739 353.659C142.529 336.778 149.169 320.395 157.896 305.742C160.276 301.738 162.875 297.868 165.682 294.15C166.309 293.317 164.903 292.506 164.276 293.328C153.983 307.147 146.248 322.698 141.437 339.244C140.063 343.857 138.979 348.553 138.193 353.302C138.02 354.318 139.588 354.762 139.75 353.734L139.739 353.659Z" fill="#1A0933"/>
<path d="M173.359 274.155C173.554 272.587 173.522 270.738 172.397 269.927C171.272 269.116 169.78 269.775 168.861 270.9C168.003 272.111 167.443 273.508 167.228 274.977C166.147 279.919 163.865 288.786 166.147 292.776L166.536 292.279C168.407 288.418 172.884 278.091 173.359 274.155Z" fill="#ED9E8F"/>
<g opacity="0.3">
<path d="M173.359 274.155C173.554 272.587 173.522 270.738 172.397 269.927C171.272 269.116 169.78 269.775 168.861 270.9C168.003 272.111 167.443 273.508 167.228 274.977C166.147 279.919 163.865 288.786 166.147 292.776L166.536 292.279C168.407 288.418 172.884 278.091 173.359 274.155Z" fill="black"/>
</g>
<path d="M185.147 290.246C186.477 289.543 187.904 288.494 187.904 287.056C187.828 286.373 187.514 285.738 187.018 285.262C186.522 284.786 185.875 284.498 185.19 284.45C183.776 284.359 182.364 284.639 181.091 285.261C176.668 287.088 168.45 289.943 166.612 294.204L167.217 294.269C171.337 293.75 181.805 292.009 185.147 290.246Z" fill="#ED9E8F"/>
<g opacity="0.3">
<path d="M185.147 290.246C186.477 289.543 187.904 288.494 187.904 287.056C187.828 286.373 187.514 285.738 187.018 285.262C186.522 284.786 185.875 284.498 185.19 284.45C183.776 284.359 182.364 284.639 181.091 285.261C176.668 287.088 168.45 289.943 166.612 294.204L167.217 294.269C171.337 293.75 181.805 292.009 185.147 290.246Z" fill="black"/>
</g>
<path d="M186.336 294.258C186.25 292.809 184.855 291.879 183.546 291.446C181.029 290.709 178.358 290.679 175.825 291.36C174.322 291.728 171.608 292.052 169.153 292.441C173.119 289.689 176.878 286.649 180.399 283.347C181.211 282.639 181.862 281.767 182.309 280.788C182.757 279.809 182.991 278.746 182.995 277.67C182.95 277.269 182.821 276.883 182.616 276.536C182.411 276.189 182.134 275.89 181.805 275.658C181.163 275.22 180.417 274.959 179.642 274.901C176.171 274.512 173.024 277.691 170.991 280.697C168.843 284.143 167.094 287.821 165.779 291.663C167.018 286.983 167.475 282.131 167.131 277.302C167.001 275.572 166.547 273.56 165.043 272.857C163.54 272.154 161.951 273.084 161.118 274.447C160.383 275.902 160.04 277.523 160.123 279.151C160.026 284.688 161.205 290.56 164.773 294.561C167.44 296.278 170.397 297.495 173.5 298.151C175.42 298.721 177.413 299.005 179.415 298.995C181.451 298.971 183.417 298.25 184.984 296.951C185.397 296.632 185.733 296.224 185.967 295.758C186.201 295.292 186.327 294.779 186.336 294.258Z" fill="#ED9E8F"/>
<g opacity="0.6">
<path d="M186.336 294.258C186.25 292.809 184.855 291.879 183.546 291.446C181.029 290.709 178.358 290.679 175.825 291.36C174.322 291.728 171.608 292.052 169.153 292.441C173.119 289.689 176.878 286.649 180.399 283.347C181.211 282.639 181.862 281.767 182.309 280.788C182.757 279.809 182.991 278.746 182.995 277.67C182.95 277.269 182.821 276.883 182.616 276.536C182.411 276.189 182.134 275.89 181.805 275.658C181.163 275.22 180.417 274.959 179.642 274.901C176.171 274.512 173.024 277.691 170.991 280.697C168.843 284.143 167.094 287.821 165.779 291.663C167.018 286.983 167.475 282.131 167.131 277.302C167.001 275.572 166.547 273.56 165.043 272.857C163.54 272.154 161.951 273.084 161.118 274.447C160.383 275.902 160.04 277.523 160.123 279.151C160.026 284.688 161.205 290.56 164.773 294.561C167.44 296.278 170.397 297.495 173.5 298.151C175.42 298.721 177.413 299.005 179.415 298.995C181.451 298.971 183.417 298.25 184.984 296.951C185.397 296.632 185.733 296.224 185.967 295.758C186.201 295.292 186.327 294.779 186.336 294.258Z" fill="#FFDBC3"/>
</g>
<path d="M173.868 295.037C173.868 294.366 173.186 293.955 172.581 293.739C171.418 293.408 170.186 293.408 169.023 293.739C168.32 293.901 167.066 294.053 165.941 294.258C167.771 292.984 169.506 291.578 171.132 290.052C171.505 289.725 171.805 289.323 172.012 288.872C172.219 288.421 172.328 287.931 172.332 287.435C172.31 287.25 172.25 287.071 172.155 286.911C172.06 286.751 171.932 286.612 171.781 286.505C171.485 286.302 171.142 286.179 170.786 286.148C169.185 285.975 167.725 287.445 166.785 288.83C165.793 290.417 164.984 292.111 164.373 293.88C164.947 291.72 165.159 289.48 165 287.251C164.935 286.44 164.73 285.521 164.038 285.196C163.697 285.079 163.326 285.089 162.992 285.224C162.658 285.359 162.384 285.61 162.221 285.931C161.885 286.601 161.728 287.346 161.767 288.094C161.581 290.656 162.351 293.195 163.93 295.221C165.16 296.005 166.523 296.558 167.952 296.854C168.842 297.111 169.763 297.242 170.688 297.243C171.629 297.226 172.537 296.891 173.262 296.291C173.453 296.143 173.608 295.953 173.713 295.736C173.818 295.518 173.871 295.279 173.868 295.037Z" fill="#1A0933"/>
</svg>
