<svg width="44" height="41" viewBox="0 0 44 41" fill="none" xmlns="http://www.w3.org/2000/svg">
<ellipse cx="21.8667" cy="20.5" rx="21.8667" ry="20.5" fill="#ED9E8F"/>
<path d="M21.8667 13.0471V31.2693M16.7037 16.6915H13.9704M17.6148 20.3359H13.9704M34.0148 26.7137V12.0509C34.0148 10.5931 32.8243 9.51195 31.3787 9.63343H31.3058C28.7547 9.8521 24.8794 11.1519 22.717 12.5125L22.5105 12.6462C22.1582 12.8648 21.5751 12.8648 21.2228 12.6462L20.9191 12.4639C18.7567 11.1155 14.8936 9.8278 12.3425 9.62128C10.8969 9.4998 9.71851 10.5931 9.71851 12.0388V26.7137C9.71851 27.8799 10.6661 28.9733 11.8323 29.1191L12.1846 29.1677C14.8207 29.5199 18.8904 30.8562 21.2228 32.1318L21.2714 32.1561C21.5994 32.3383 22.1218 32.3383 22.4376 32.1561C24.7701 30.8684 28.8518 29.5199 31.5001 29.1677L31.901 29.1191C33.0672 28.9733 34.0148 27.8799 34.0148 26.7137Z" stroke="#1A0933" stroke-width="1.5" stroke-linecap="round" stroke-linejoin="round"/>
</svg>
